<?xml version="1.0" encoding="utf-8"?>
<!-- Generator: Adobe Illustrator 27.0.1, SVG Export Plug-In . SVG Version: 6.00 Build 0)  -->
<svg version="1.1" id="Layer_1" xmlns="http://www.w3.org/2000/svg" xmlns:xlink="http://www.w3.org/1999/xlink" x="0px" y="0px"
	 viewBox="0 0 512 512" style="enable-background:new 0 0 512 512;" xml:space="preserve">
<path d="M374.1,489.7h40.4l-120.4-248L191.9,447.5c-10.4,20.3-26.9,35.4-49.5,45.1c-22.5,9.7-45.1,14.2-67.6,13.3
	c-11-0.4-21.4-1.9-31.3-4.5c-9.9-2.6-18-6.5-24.3-11.7c-6.3-5.2-10.4-11.4-12.4-18.5c-1.9-7.1-0.7-15.5,3.7-25L227.4,6h4.9l-0.8,0.6
	l236.6,483H506v3.2H374.1V489.7z M291.7,237.1L205.1,59.9L26.3,422.8c-5.5,11.3-5.9,20.9-1.2,28.9c4.7,8,12.2,14.3,22.7,18.8
	c10.4,4.5,22.9,7.4,37.5,8.4c14.6,1.1,29,0,43.3-3.2c14.3-3.2,27.5-8.5,39.6-15.9c12.1-7.4,21.1-16.9,27.2-28.6L291.7,237.1z"/>
</svg>
